<svg width="3" height="3" viewBox="0 0 3 3" fill="none" xmlns="http://www.w3.org/2000/svg">
<path d="M3 1.5C3 1.89782 2.84196 2.27936 2.56066 2.56066C2.27936 2.84196 1.89782 3 1.5 3C1.10218 3 0.720644 2.84196 0.43934 2.56066C0.158035 2.27936 0 1.89782 0 1.5C0 1.10218 0.158035 0.720644 0.43934 0.43934C0.720644 0.158035 1.10218 0 1.5 0C1.89782 0 2.27936 0.158035 2.56066 0.43934C2.84196 0.720644 3 1.10218 3 1.5V1.5ZM1.5 0.75C1.4763 0.750013 1.45287 0.754991 1.43121 0.764612C1.40955 0.774232 1.39015 0.788283 1.37425 0.805858C1.35835 0.823434 1.34631 0.844145 1.33891 0.866656C1.3315 0.889168 1.32889 0.912981 1.33125 0.936562L1.39687 1.59412C1.39908 1.61996 1.4109 1.64402 1.43 1.66156C1.44909 1.67909 1.47407 1.68882 1.5 1.68882C1.52593 1.68882 1.55091 1.67909 1.57 1.66156C1.5891 1.64402 1.60092 1.61996 1.60313 1.59412L1.66875 0.936562C1.67111 0.912981 1.6685 0.889168 1.66109 0.866656C1.65369 0.844145 1.64165 0.823434 1.62575 0.805858C1.60985 0.788283 1.59045 0.774232 1.56879 0.764612C1.54713 0.754991 1.5237 0.750013 1.5 0.75V0.75ZM1.50037 1.875C1.45065 1.875 1.40296 1.89475 1.36779 1.92992C1.33263 1.96508 1.31287 2.01277 1.31287 2.0625C1.31287 2.11223 1.33263 2.15992 1.36779 2.19508C1.40296 2.23025 1.45065 2.25 1.50037 2.25C1.5501 2.25 1.59779 2.23025 1.63296 2.19508C1.66812 2.15992 1.68787 2.11223 1.68787 2.0625C1.68787 2.01277 1.66812 1.96508 1.63296 1.92992C1.59779 1.89475 1.5501 1.875 1.50037 1.875Z" fill="#ADB5BD"/>
</svg>
